<svg width="18" height="20" viewBox="0 0 18 20" fill="none" xmlns="http://www.w3.org/2000/svg">
<path d="M14.5024 6.76101C14.5024 5.23309 13.9334 3.76776 12.9204 2.68736C11.9076 1.60696 10.5338 1 9.10142 1C7.669 1 6.29525 1.60696 5.28237 2.68736C4.2695 3.76776 3.70047 5.23309 3.70047 6.76101C3.70047 13.4822 1 15.4025 1 15.4025H17.2028C17.2028 15.4025 14.5024 13.4822 14.5024 6.76101Z" stroke="white" stroke-linecap="round" stroke-linejoin="round"/>
<path d="M10.6575 18.4023C10.4993 18.6752 10.2722 18.9017 9.99878 19.059C9.72549 19.2164 9.41566 19.2994 9.10024 19.2994C8.78483 19.2994 8.47499 19.2164 8.2017 19.059C7.92842 18.9017 7.70122 18.6752 7.54297 18.4023" stroke="white" stroke-linecap="round" stroke-linejoin="round"/>
</svg>
