<svg width="24" height="18" viewBox="0 0 24 18" fill="none" xmlns="http://www.w3.org/2000/svg">
<path d="M20.7288 2.71823C20.3827 2.19548 19.8928 1.7956 19.3116 1.56316C18.0501 1.0573 16.9651 0.71938 15.9944 0.528916C15.3134 0.395796 14.6391 0.730644 14.315 1.36143L14.2341 1.51912C13.5153 1.43976 12.7519 1.41314 11.8825 1.43516C10.9911 1.41365 10.2252 1.43976 9.5053 1.51912L9.42491 1.36143C9.10082 0.730644 8.42549 0.396308 7.74607 0.529428C6.77531 0.71938 5.68987 1.0573 4.42882 1.56367C3.84821 1.79612 3.35823 2.19548 3.0116 2.71874C0.59445 6.36981 -0.35275 10.3081 0.116242 14.7594C0.132626 14.9156 0.219666 15.0554 0.352274 15.1388C2.21186 16.3113 3.82107 17.1141 5.41647 17.6661C6.0836 17.899 6.82344 17.6384 7.21717 17.0368L7.91912 15.9611C7.36002 15.7502 6.81423 15.5003 6.29096 15.2018C6.04571 15.062 5.96021 14.7492 6.09999 14.504C6.23976 14.2577 6.55259 14.1712 6.79835 14.313C8.35535 15.2008 10.1156 15.6703 11.8887 15.6703C13.6617 15.6703 15.422 15.2008 16.979 14.313C17.2242 14.1712 17.537 14.2577 17.6773 14.504C17.8171 14.7492 17.7316 15.062 17.4864 15.2018C16.9457 15.5105 16.3804 15.7676 15.8014 15.9821L16.5238 17.0583C16.8213 17.5012 17.3123 17.7531 17.8181 17.7531C17.983 17.7531 18.1494 17.726 18.3112 17.6707C19.9112 17.1182 21.5235 16.3144 23.3872 15.1393C23.5198 15.0559 23.6068 14.9156 23.6232 14.76C24.0932 10.3081 23.146 6.3693 20.7288 2.71823ZM8.59957 11.5927C7.61346 11.5927 6.80194 10.5539 6.80194 9.29128C6.80194 8.02869 7.61346 6.98984 8.59957 6.98984C9.58568 6.98984 10.3972 8.02869 10.3972 9.29128C10.3972 10.5539 9.58568 11.5927 8.59957 11.5927ZM15.252 11.5794C14.2751 11.5794 13.4713 10.5344 13.4713 9.26415C13.4713 7.99388 14.2751 6.94888 15.252 6.94888C16.2289 6.94888 17.0327 7.99388 17.0327 9.26415C17.0327 10.5344 16.2289 11.5794 15.252 11.5794Z" fill="#BACDF5"/>
</svg>
