<svg width="20" height="20" viewBox="0 0 20 20" fill="none" xmlns="http://www.w3.org/2000/svg">
<g clip-path="url(#clip0_16_110)">
<path d="M10.001 1.8009C12.6729 1.8009 12.9893 1.81262 14.04 1.8595C15.0166 1.90247 15.5439 2.06653 15.8955 2.20325C16.3604 2.38293 16.6963 2.60168 17.0439 2.94934C17.3955 3.3009 17.6104 3.63293 17.79 4.09778C17.9268 4.44934 18.0908 4.98059 18.1338 5.95325C18.1807 7.00793 18.1924 7.32434 18.1924 9.99231C18.1924 12.6642 18.1807 12.9806 18.1338 14.0314C18.0908 15.0079 17.9268 15.5353 17.79 15.8868C17.6104 16.3517 17.3916 16.6876 17.0439 17.0353C16.6924 17.3868 16.3604 17.6017 15.8955 17.7814C15.5439 17.9181 15.0127 18.0822 14.04 18.1251C12.9854 18.172 12.6689 18.1837 10.001 18.1837C7.3291 18.1837 7.0127 18.172 5.96191 18.1251C4.98535 18.0822 4.45801 17.9181 4.10645 17.7814C3.6416 17.6017 3.30566 17.3829 2.95801 17.0353C2.60645 16.6837 2.3916 16.3517 2.21191 15.8868C2.0752 15.5353 1.91113 15.004 1.86816 14.0314C1.82129 12.9767 1.80957 12.6603 1.80957 9.99231C1.80957 7.32044 1.82129 7.00403 1.86816 5.95325C1.91113 4.97668 2.0752 4.44934 2.21191 4.09778C2.3916 3.63293 2.61035 3.297 2.95801 2.94934C3.30957 2.59778 3.6416 2.38293 4.10645 2.20325C4.45801 2.06653 4.98926 1.90247 5.96191 1.8595C7.0127 1.81262 7.3291 1.8009 10.001 1.8009ZM10.001 0.00012207C7.28613 0.00012207 6.94629 0.0118408 5.87988 0.0587158C4.81738 0.105591 4.08691 0.277466 3.4541 0.52356C2.79395 0.781372 2.23535 1.12122 1.68066 1.67981C1.12207 2.2345 0.782227 2.79309 0.524414 3.44934C0.27832 4.08606 0.106445 4.81262 0.0595703 5.87512C0.0126953 6.94543 0.000976562 7.28528 0.000976562 10.0001C0.000976562 12.715 0.0126953 13.0548 0.0595703 14.1212C0.106445 15.1837 0.27832 15.9142 0.524414 16.547C0.782227 17.2072 1.12207 17.7657 1.68066 18.3204C2.23535 18.8751 2.79395 19.2189 3.4502 19.4728C4.08691 19.7189 4.81348 19.8907 5.87598 19.9376C6.94238 19.9845 7.28223 19.9962 9.99707 19.9962C12.7119 19.9962 13.0518 19.9845 14.1182 19.9376C15.1807 19.8907 15.9111 19.7189 16.5439 19.4728C17.2002 19.2189 17.7588 18.8751 18.3135 18.3204C18.8682 17.7657 19.2119 17.2072 19.4658 16.5509C19.7119 15.9142 19.8838 15.1876 19.9307 14.1251C19.9775 13.0587 19.9893 12.7189 19.9893 10.004C19.9893 7.28919 19.9775 6.94934 19.9307 5.88294C19.8838 4.82043 19.7119 4.08997 19.4658 3.45715C19.2197 2.79309 18.8799 2.2345 18.3213 1.67981C17.7666 1.12512 17.208 0.781372 16.5518 0.527466C15.915 0.281372 15.1885 0.109497 14.126 0.0626221C13.0557 0.0118408 12.7158 0.00012207 10.001 0.00012207Z" fill="#BACDF5"/>
<path d="M10.0015 4.8634C7.16553 4.8634 4.86475 7.16418 4.86475 10.0001C4.86475 12.8361 7.16553 15.1368 10.0015 15.1368C12.8374 15.1368 15.1382 12.8361 15.1382 10.0001C15.1382 7.16418 12.8374 4.8634 10.0015 4.8634ZM10.0015 13.3322C8.16162 13.3322 6.66943 11.84 6.66943 10.0001C6.66943 8.16028 8.16162 6.66809 10.0015 6.66809C11.8413 6.66809 13.3335 8.16028 13.3335 10.0001C13.3335 11.84 11.8413 13.3322 10.0015 13.3322Z" fill="#BACDF5"/>
<path d="M16.5405 4.66028C16.5405 5.32434 16.0015 5.8595 15.3413 5.8595C14.6772 5.8595 14.1421 5.32044 14.1421 4.66028C14.1421 3.99622 14.6812 3.46106 15.3413 3.46106C16.0015 3.46106 16.5405 4.00012 16.5405 4.66028Z" fill="#BACDF5"/>
</g>
<defs>
<clipPath id="clip0_16_110">
<rect width="20" height="20" fill="white"/>
</clipPath>
</defs>
</svg>
