<svg width="20" height="20" viewBox="0 0 20 20" fill="none" xmlns="http://www.w3.org/2000/svg">
<path d="M10.5254 0H14.0158C14.3522 2.90989 16.0465 4.47256 19 4.84209V8.18539C18.1238 8.19698 17.2514 8.07114 16.4164 7.81272C15.574 7.54712 14.7777 7.15944 14.0545 6.6628V6.87575C14.0545 9.1543 14.059 11.4322 14.0545 13.7102C14.0493 15.3048 13.4744 16.694 12.395 17.8858C11.409 18.9769 10.1723 19.6658 8.69839 19.9013C6.75987 20.2114 4.9889 19.7949 3.44608 18.593C2.19435 17.6386 1.35731 16.262 1.10091 14.7361C0.796723 13.0375 1.18726 11.4686 2.17779 10.0418C2.76928 9.18364 3.57358 8.48404 4.51652 8.00751C5.2307 7.63365 6.01792 7.41021 6.82689 7.35175C7.34825 7.31856 7.87413 7.34549 8.40967 7.34549V10.8347C8.20344 10.8053 7.9998 10.7646 7.79357 10.7483C5.83636 10.5967 4.20525 12.2652 4.57839 14.2012C4.80395 15.3699 5.54507 16.0864 6.69413 16.4459C8.24082 16.9282 10.0221 15.9737 10.432 14.3941C10.5001 14.0997 10.5312 13.7983 10.5248 13.4966C10.5308 9.07059 10.5321 4.64459 10.5286 0.218586L10.5254 0Z" fill="#BACDF5"/>
</svg>
