<svg width="45" height="46" viewBox="0 0 45 46" fill="none" xmlns="http://www.w3.org/2000/svg">
<path d="M0 25.8189C0 36.4488 8.61694 45.0657 19.2468 45.0657C29.8767 45.0657 38.4936 36.4488 38.4936 25.8189C38.3622 22.0522 37.3351 18.5521 35.6188 15.4895L35.677 15.604C34.7626 14.4154 34.2105 12.9057 34.2105 11.2683C34.2105 7.98227 37.6768 4.69435 41.3084 4.69435H41.7722C43.0434 4.66055 44.0611 3.62216 44.0611 2.34717C44.0611 1.07219 43.0434 0.0337993 41.7759 0H41.7722H41.3027C35.5287 0 30.5884 3.07949 29.4167 9.38869C26.7465 7.61611 23.468 6.55894 19.9435 6.55894C19.6956 6.55894 19.4515 6.56457 19.2055 6.57396L19.2412 6.57208C8.61506 6.57772 0.00375548 15.1909 0.00187774 25.817L0 25.8189ZM16.8996 25.8189C16.8996 24.5233 17.9512 23.4736 19.2468 23.4736C20.5425 23.4736 21.594 24.5233 21.594 25.8208C21.594 27.1183 20.5443 28.168 19.2468 28.168C19.2449 28.168 19.2431 28.168 19.2412 28.168C17.9474 28.1642 16.9015 27.1145 16.9015 25.8208V25.8189H16.8996ZM4.69435 25.8189C4.6981 23.4905 6.58523 21.6053 8.91363 21.6053C11.242 21.6053 13.1329 23.4943 13.1329 25.8245C13.1329 28.1548 11.2439 30.0438 8.91363 30.0438C7.74943 30.0438 6.69414 29.5725 5.9299 28.8083C5.16566 28.044 4.69435 26.9887 4.69435 25.8245C4.69435 25.8227 4.69435 25.8208 4.69435 25.8189ZM25.3495 25.8189C25.3532 23.4905 27.2404 21.6053 29.5688 21.6053C31.8971 21.6053 33.788 23.4943 33.788 25.8245C33.788 28.1548 31.899 30.0438 29.5688 30.0438C28.4046 30.0438 27.3493 29.5725 26.585 28.8083C25.8208 28.044 25.3495 26.9887 25.3495 25.8245C25.3495 25.8227 25.3495 25.8208 25.3495 25.8189ZM15.0219 36.1465C15.0219 33.8124 16.9147 31.9216 19.2468 31.9216C21.579 31.9216 23.4717 33.8143 23.4717 36.1465C23.4717 38.4805 21.579 40.3714 19.2468 40.3714C19.2449 40.3714 19.2412 40.3714 19.2393 40.3714C16.909 40.3676 15.0219 38.4767 15.0219 36.1465ZM15.0219 15.4913C15.0257 13.1629 16.9128 11.2777 19.2412 11.2777C21.5696 11.2777 23.4605 13.1667 23.4605 15.497C23.4605 17.8273 21.5715 19.7163 19.2412 19.7163C18.0751 19.7163 17.0179 19.2431 16.2556 18.4769C15.4932 17.7127 15.0219 16.6593 15.0219 15.4951C15.0219 15.4932 15.0219 15.4913 15.0219 15.4895V15.4913Z" fill="white"/>
</svg>
